<svg xmlns="http://www.w3.org/2000/svg" width="24" height="24" viewBox="0 0 24 24">
    <g fill="none" fill-rule="evenodd" stroke="#FFF" stroke-linecap="round" stroke-linejoin="round">
        <path d="M23.5 2.865A2.365 2.365 0 0 0 21.135.5H2.865A2.365 2.365 0 0 0 .5 2.865v18.27A2.365 2.365 0 0 0 2.865 23.5h18.27a2.365 2.365 0 0 0 2.365-2.365V2.865zM18.52 6.5h-7.014M18.52 12.5h-7.014M18.52 18.5h-7.014"/>
        <path d="M7.49 6.004a1.49 1.49 0 1 1-2.98 0 1.49 1.49 0 0 1 2.98 0zM7.49 12.004a1.49 1.49 0 1 1-2.98 0 1.49 1.49 0 0 1 2.98 0zM7.49 18.005a1.49 1.49 0 1 1-2.98 0 1.49 1.49 0 0 1 2.98 0z"/>
    </g>
</svg>
