<svg xmlns="http://www.w3.org/2000/svg" width="30" height="30" viewBox="0 0 30 30">
    <path fill="#6C6" fill-rule="evenodd" d="M15 0c8.284 0 15 6.716 15 15 0 8.284-6.716 15-15 15-8.284 0-15-6.716-15-15C0 6.716 6.716 0 15 0zm1.183 4.02l-.033.922a1.14 1.14 0 0 1-1.137 1.1l-.022.001a1.141 1.141 0 0 1-1.143-1.102l-.032-.916A9.99 9.99 0 0 0 8.076 6.4l.633.673a1.132 1.132 0 0 1-.025 1.575 1.15 1.15 0 0 1-1.61.023l-.695-.664c.093.089-2.354 2.492-2.354 5.81l.9.032a1.16 1.16 0 0 1 1.118 1.155A1.142 1.142 0 0 1 4.94 16.15l-.92.03c.12 1.625.64 3.218 1.502 4.6.142.227.301.457.534.591.68.391 1.49-.217 2.01-.803.569-.637 1.358-1.38 2.168-.906.193.112.345.29.442.491.317.656.182 1.347.207 2.027.08 2.202 2.094 4.154 4.298 4.166a3.99 3.99 0 0 0 1.431-.264c1.584-.6 2.83-2.146 2.911-3.856.03-.637-.08-1.286.184-1.898.115-.265.31-.498.57-.621.767-.363 1.319.419 1.931.863 2.704 1.96 3.726-4.263 3.726-4.263l-.887-.098a1.187 1.187 0 0 1 .09-2.365l.838-.028a9.99 9.99 0 0 0-2.374-5.74l-.646.606a1.153 1.153 0 0 1-1.636-1.624l.604-.653a9.984 9.984 0 0 0-5.74-2.386zm-1.016 10.313s3.166 5.7 3.166 7.467c0 1.766-1.418 3.2-3.166 3.2S12 23.566 12 21.8c0-1.684 2.879-6.945 3.147-7.43z"/>
</svg>
